<?xml version="1.0" encoding="utf-8"?>
<!-- Generator: Adobe Illustrator 21.1.0, SVG Export Plug-In . SVG Version: 6.00 Build 0)  -->
<svg version="1.1" id="Layer_1" xmlns="http://www.w3.org/2000/svg" xmlns:xlink="http://www.w3.org/1999/xlink" x="0px" y="0px"
	 viewBox="0 0 730 950" style="enable-background:new 0 0 730 950;" xml:space="preserve">
<style type="text/css">
	.st0{fill:#FFFFFF;}
	.st1{fill:#D7A333;}
	.st2{fill:#1D1D1B;}
</style>
<rect class="st0" width="730" height="950"/>
<g>
	<path class="st1" d="M68.4,396c3.6,0,6.6,0,9.6,0c132.6,0,265.2,0,397.9-0.1c5.7,0,10.3,1,15.2,4.2c11.7,7.7,25.2,11.4,38.9,12.9
		c17.8,2,35.8,3.9,53.7,3.8c24.1-0.2,48.1-2.7,71-11.5c3.1-1.2,6.1-2.5,9.2-3.7c0.3-0.1,0.6,0.1,1.5,0.2c0.1,1.5,0.3,3.1,0.3,4.7
		c0,20-0.1,40,0.1,60c0,4.7-1.3,6.6-6.2,6.4c-11.2-0.3-22.3-0.1-33.5-0.1c-183.1,0-366.2,0-549.3,0c-9.8,0-8.3,0.4-8.3-8.2
		c0-20.8,0-41.7,0-62.5C68.4,400.4,68.4,398.5,68.4,396z"/>
	<path class="st1" d="M664.5,111.3c-3.5,0.2-6.6,0.5-9.8,0.5c-190.5,0-381,0-571.4,0c-3.8,0-7.7-0.1-11.4-0.8
		c-1.3-0.2-3.3-2.3-3.4-3.6c-0.2-16.5-0.2-33,0-49.5c0-1.2,2.2-3.1,3.5-3.3c3.3-0.5,6.6-0.2,10-0.2c190.5,0,381,0,571.4,0
		c9.9,0,12.3-2.3,11.7,11.7c-0.5,12.3-0.1,24.7-0.1,37C665,105.7,664.7,108.4,664.5,111.3z"/>
	<path class="st1" d="M665.5,197c0,16.7,0.2,33.1-0.2,49.4c-0.1,2.2-2.5,5.1-4.7,6.2c-13.9,7.3-29.1,10.7-44.5,12
		c-18.7,1.6-37.6,2.3-56.3,2c-17.8-0.4-35.5-2.9-52.4-8.9c-6.9-2.4-13.1-6.7-19.7-9.9c-2-1-4.3-1.8-6.5-1.9
		c-8.3-0.2-16.7-0.1-25-0.1c-127,0-254,0-381,0c-2.1,0-4.3-0.3-6.9-0.4c0-7.5,0-14.6,0-21.7c0-9,0.1-18-0.1-27
		c-0.1-3.8,0.9-5.5,5-5.3c5.5,0.3,11,0.1,16.5,0.1c129.3,0,258.7,0,388-0.1c4.5,0,8.1,1.1,11.9,3.7c12.9,9,28.1,11.8,43.2,14.2
		c24.8,3.9,49.8,4.4,74.7,2c19.2-1.9,38.3-5,55.7-14C663.8,197,664.3,197.1,665.5,197z"/>
	<path class="st1" d="M665.6,301.1c0,17.2,0.2,33.7-0.3,50.1c-0.1,2.1-3.2,4.8-5.6,6c-13.1,6.5-27.2,10.3-41.7,11.3
		c-20.5,1.5-41.2,2.5-61.8,1.9c-19.9-0.6-39.6-4.3-58.2-12c-2.4-1-5.1-2.1-6.9-3.9c-4.6-4.5-10.1-4.4-15.8-4.4
		c-132.6,0-265.2,0-397.9,0c-10.3,0-9,0.6-9.1-9.2c0-13.5,0.1-27-0.1-40.5c-0.1-3.7,1.1-5.1,4.8-5c5,0.2,10,0,15,0
		c129.1,0,258.2,0,387.4,0c5.2,0,9.7,0.7,14.3,3.9c12.6,8.7,27.5,11.6,42.3,14c20.1,3.2,40.3,4.4,60.7,3.1
		c24-1.5,47.8-3.7,69.8-14.8C663.2,301.3,664.1,301.4,665.6,301.1z"/>
	<path class="st1" d="M665.6,128.4c0,12.5,0.2,23.8-0.1,35.1c-0.1,5.4-3.9,9.2-8.1,12c-6.8,4.5-13.9,8.1-22.3,9.2
		c-8.6,1.1-16.9,4.1-25.5,5.3c-20.4,2.9-40.8,2.4-61.2-0.7c-13-2-26.3-4.3-37.3-11.7c-7.1-4.8-14.1-5.6-22-5.6
		c-138,0.1-276,0.1-414,0.1c-6.6,0-6.6,0-6.7-6.6c0-10.5,0.2-21-0.1-31.5c-0.1-4.5,1.5-5.9,5.8-5.7c5.8,0.3,11.7,0.1,17.5,0.1
		c185.8,0,371.7,0,557.5,0C654.3,128.4,659.6,128.4,665.6,128.4z"/>
	<path class="st1" d="M164.6,613.8c-30,0-60-0.1-89.9,0.1c-5,0-6.5-1.3-6.4-6.4c0.3-27,0.2-54,0-80.9c0-4.4,0.8-6.1,5.7-6.1
		c60.1,0.2,120.3,0.1,180.4,0.1c6.1,0,6.6,0.5,6.6,6.5c0,26.8-0.1,53.6,0.1,80.4c0,5-1.5,6.5-6.5,6.4
		C224.5,613.6,194.6,613.8,164.6,613.8z"/>
	<path class="st1" d="M381.1,520.5c29.3,0,58.6,0,87.9,0c6.6,0,6.6,0,6.6,6.7c0,26.8-0.1,53.6,0.1,80.4c0,4.9-1.5,6.2-6.3,6.2
		c-59-0.1-117.9-0.1-176.9,0c-4.7,0-6.4-1.3-6.4-6.2c0.2-27.3,0.1-54.6,0-81.9c0-3.7,0.9-5.2,5.1-5.2
		C321.1,520.7,351.1,520.6,381.1,520.5C381.1,520.5,381.1,520.5,381.1,520.5z"/>
	<path class="st1" d="M581.3,520.5c26,0,52,0,77.9,0c6.3,0,6,0.1,6,6.6c-0.1,26.8,0,53.6,0.1,80.4c0,5.7-0.1,6.2-6,6.2
		c-52.1,0-104.3,0-156.4,0.1c-4.4,0-5.7-1.4-5.7-5.7c0.2-27.3,0.2-54.6,0-81.9c0-4.9,1.8-5.8,6.1-5.8
		C529.3,520.6,555.3,520.5,581.3,520.5C581.3,520.5,581.3,520.5,581.3,520.5z"/>
	<path class="st1" d="M366.5,485.5c96.8,0,193.6,0,290.4,0.1c2.5,0,7,0.3,7.2,1.3c1,3.9,0.8,8.1,0.7,12.3c0,0.6-1.7,1.5-2.7,1.7
		c-1.8,0.3-3.6,0.2-5.5,0.2c-193.9,0-387.8,0-581.8,0c-6.5,0-6.6,0-6.5-6.7c0.1-9.5-1.6-8.8,8.8-8.8
		C173.6,485.5,270.1,485.5,366.5,485.5z"/>
	<path class="st1" d="M664.6,269.7c0.8,9.5,0.6,9.7-8.1,13.3c-17.9,7.4-36.8,10.5-56,11.6c-24.9,1.3-50,1.3-74.6-3.8
		c-13.7-2.9-27.2-6.2-38.8-14.9c-2.1-1.6-5.7-1.7-8.6-1.7c-51.8-0.1-103.7-0.1-155.5-0.1c-82,0-164,0-246,0c-1.3,0-2.7-0.1-4,0
		c-3.8,0.3-4.6-1.7-4.8-5.2c-0.1-3.9,1.7-4.5,4.8-4.4c4.2,0.1,8.3,0,12.5,0c130.8,0,261.7,0,392.5-0.1c3.9,0,7.3,0.6,10.6,3
		c13.1,9.5,28.6,12.2,44,14.9c25,4.3,50.1,4.2,75.2,1.9C626.1,282.6,645.4,279.7,664.6,269.7z"/>
	<path class="st1" d="M664.7,374c1.5,5.3,0.8,9.6-4.8,11.4c-11.4,3.6-22.6,8.1-34.3,10.2c-27.5,4.9-55.3,5.6-83,1.6
		c-13.3-1.9-26.3-5.2-39.3-8.5c-4.5-1.2-9-3.7-12.8-6.6c-3.5-2.6-6.9-3.4-11-3.4c-135,0.1-270,0.1-405,0.1c-6,0-6.8-0.6-5.9-6
		c0.2-1.3,2.2-3.2,3.5-3.3c4.3-0.4,8.7-0.2,13-0.2c130.7,0,261.3,0,392,0c4.9,0,9,0.8,13.4,3.8c10.8,7.2,23.3,10.7,36.1,12.4
		c15.5,2,31,4,46.6,4.4c28.7,0.7,57.2-1.5,84.3-12.3C659.9,376.4,662.2,375.1,664.7,374z"/>
	<path class="st2" d="M141.8,791.3c-5.2,0-9.1,0.2-13-0.1c-1.3-0.1-2.7-1.6-3.7-2.8c-12.3-15.8-24.6-31.5-36.7-47.4
		c-2.4-3.2-4.9-4.1-9-2.8c0,17.5,0,35,0,52.9c-4,0-7.4,0-11.2,0c0-38.2,0-76.4,0-115.4c4.8,0,9.5-0.1,14.3,0
		c10.8,0.3,21.7,0,32.4,1.4c15.7,2,25.2,13.8,25.2,29.2c0,15.9-9.4,27.3-25.1,30c-4.5,0.8-9.1,1.1-14.4,1.8
		C114.3,755.8,127.6,773,141.8,791.3z M79.6,726.8c11.7-0.6,22.9-0.6,33.9-2c8.8-1.1,14.4-8.8,14.5-17.7c0.2-9.1-5.1-17.5-13.5-18.5
		c-11.4-1.5-23.1-1.4-34.9-2C79.6,700.3,79.6,712.9,79.6,726.8z"/>
	<path class="st2" d="M670.4,676.3c0,3.1,0,6.4,0,10.4c-6.8,0-13.4,0-20,0c-5.7,0-11.3-0.1-17,0.1c-1.4,0-3.8,0.9-3.9,1.8
		c-2,9.5-3.7,19.1-5.5,28.9c29.4-3.6,47.2,7.5,49.3,30.3c2.4,25.6-12.7,44.7-36.3,46.4c-20.5,1.4-37.7-12.2-38.5-30.8
		c3.6,0,7.2,0,11.3,0c1.7,6.6,4.7,12.5,11,16.2c15.9,9.4,36.5-0.3,40.2-19c4.4-22.5-11.4-37.8-34.2-32.9c-5.5,1.2-10.8,3.1-16.8,4.8
		c1.7-9.3,3.4-18.6,5.1-27.9c1.6-8.7,3.1-17.3,5-26c0.3-1.2,2.2-3,3.3-3c15.3-0.2,30.6-0.1,46,0
		C669.6,675.8,669.8,676.1,670.4,676.3z"/>
	<path class="st2" d="M458.7,762.8c3.1,1.7,5.6,3.2,8.1,4.6c-3.4,13.5-18.9,25.1-33.5,26c-17.9,1.1-31.6-5.5-39.8-21.7
		c-9-17.9-7.9-35.5,3.6-51.9c9.6-13.8,25-19.1,41.4-15.3c15.8,3.7,27.9,17.3,30.6,34.4c0.5,3.2,0.7,6.5,1.1,10.2
		c-24,0-47.4,0-70.7,0c-2.7,10.3,5.1,25.3,16,30.9c8.2,4.3,16.7,3.9,25.1,0.7C449.2,777.6,454.3,770.7,458.7,762.8z M400.3,739.5
		c19.2,0,38.3,0,57.5,0c-0.5-13-13.2-24.8-27.1-25.3C415,713.7,402.1,724.3,400.3,739.5z"/>
	<path class="st2" d="M240.4,749.4c-24.3,0-47.5,0-70.7,0c-2.6,11.3,5.8,26.3,17.4,31.5c14.4,6.5,28.3,0.7,42.1-17.9
		c2.6,1.5,5.3,3,7.9,4.5c-4.2,13.8-19,24.9-33.3,25.9c-17.2,1.1-30.8-4.7-39.3-20.1c-9.3-16.8-9.1-33.8,0.7-50.4
		c9-15.3,24.3-21.9,41.8-18.7c15.9,2.9,28.9,16.5,32.1,33.7C239.7,741.4,239.9,745,240.4,749.4z M228.3,739.7
		c-2.5-16.4-16-26.7-32.5-25.4c-12.8,1.1-25.1,13.4-25.1,25.4C189.7,739.7,208.8,739.7,228.3,739.7z"/>
	<path class="st2" d="M304.8,791c-3.6,0-6.8,0-10.5,0c0-28.1,0-56.3,0-84.9c3.4,0,6.7,0,10.6,0c0,4.3,0,8.6,0,12.8
		c0.4,0.2,0.8,0.5,1.1,0.7c1.2-1.4,2.4-3,3.7-4.3c10.5-10.6,23-14.6,37.4-10.2c10.9,3.3,18.6,11.3,19.5,22.4
		c1.7,21,1.7,42.1,2.5,63.4c-4.5,0-7.8,0-11.8,0c0-2.1,0-4,0-5.9c-0.1-15.3,0.1-30.6-0.3-45.9c-0.3-14-5.3-21.7-14.9-24.4
		c-11.3-3.2-23.8,1.6-31,11.9c-4.5,6.4-5.8,13.7-5.9,21.3c-0.2,13-0.1,26-0.2,39C305,788.2,304.9,789.5,304.8,791z"/>
	<path class="st2" d="M489.1,774.2c6.1,5.2,12.4,9.7,20.4,8.9c4.4-0.4,9.3-1.7,13-4.1c7.4-4.8,7.2-13.6-0.1-18.6
		c-4.2-2.9-9.1-4.8-13.6-7.2c-4.4-2.3-9-4.4-13.2-7.1c-7.1-4.6-10.8-11.3-9.6-20c1.2-8.6,6.8-14,14.6-16.9c14.5-5.3,27-0.4,39.1,8.9
		c-2.9,2.6-5.4,4.8-7.4,6.6c-5.3-2.5-9.9-5.7-14.9-6.6c-4.6-0.8-10.1-0.3-14.3,1.7c-7.3,3.4-8,10.9-1.9,16.3c3.3,2.9,7.5,4.9,11.4,7
		c5.5,3,11.5,5.4,16.7,8.8c13.8,9.1,14.1,25.3,1,35.5c-13.1,10.1-38.3,7.3-48.3-5.5C484.3,779.4,486.7,776.9,489.1,774.2z"/>
	<path class="st2" d="M260.2,791c0-28.3,0-56.3,0-84.8c3.4,0,6.8,0,10.5,0c0,28.1,0,56.3,0,84.8C267.3,791,263.9,791,260.2,791z"/>
	<path class="st2" d="M329.3,873.1c-0.1,7.7,3.6,13.8,9.9,15.9c9.7,3.2,16.8-0.7,22.1-9c1.5,0.8,2.7,1.5,4,2.2
		c-3.5,10.2-14.7,15.4-26.1,12.3c-11.1-3-17.9-14.2-15.7-25.9c2.2-11.8,12.6-19.7,24.1-18.3c11.8,1.4,19.9,10.8,19.4,22.9
		C354.5,873.1,342,873.1,329.3,873.1z M360.4,867.9c-1.7-7.8-8.3-12.8-15.8-12.4c-7.8,0.4-13.4,5.2-14.4,12.4
		C340.3,867.9,350.3,867.9,360.4,867.9z"/>
	<path class="st2" d="M514.4,861.6c9.1,6.3,11.8,13.3,8.5,21.8c-3.3,8.7-11.3,13.1-21.8,11.9c-8.2-0.9-14-7-15.2-16.1
		c3.4-1.4,5.2-0.5,6.7,3.1c2.4,5.8,7.6,8.3,13.8,7.5c6-0.8,10.6-4.7,11.6-10.1c1.4-7.7-3.5-13.2-12.5-14.7c-1.5-0.2-2.7-1.9-4.1-2.9
		c1.3-1,2.5-2.7,3.9-3c5.7-1.5,9.2-4.5,9.5-8.9c0.3-4-2.7-7.7-7.1-9.1c-5-1.6-9.8,0-12.4,4.8c-1.8,3.2-3.5,5.1-7.2,3.3
		c0.8-7.2,6-12.8,12.8-14c7.9-1.4,15.4,2.1,18.6,8.6C522.6,849.9,521.1,855.1,514.4,861.6z"/>
	<path class="st2" d="M162.4,883.6c2.3-1.3,3.9-2.1,5.6-3.1c1.4,1.7,2.6,3.3,3.9,4.7c4.4,4.8,10,5.9,15.4,3.3
		c6.1-3,7.7-9.4,3.1-14.4c-2.6-2.9-5.9-5.3-9-7.8c-2.6-2.1-5.4-3.8-8-5.9c-5.9-4.8-7.9-10.6-5.9-16.1c2.2-6.1,7.9-9.5,15.6-9.2
		c6.9,0.2,11.7,3.8,15.7,9.5c-1.8,1.2-3.3,2.2-4.7,3.2c-2.4-1.9-4.4-4-6.8-5.4c-4.3-2.5-10.2-1.3-12.6,2.3
		c-2.3,3.5-1.3,7.9,3.2,11.3c4.6,3.6,9.6,6.6,14.1,10.3c9,7.5,10.6,15.9,4.8,22.9c-6.2,7.5-18.7,9-26.6,2.8
		C167.3,889.6,165.1,886.6,162.4,883.6z"/>
	<path class="st2" d="M463.7,869.6c-14.8,1.1-23.9-7.9-21.5-20.4c2-10.1,12.2-16.5,22.3-13.9c9.9,2.5,15.3,12.8,12.2,23.2
		c-0.6,2-1.4,4.1-2.6,5.9c-6.7,10.3-13.4,20.5-20.4,31.2c-1.8-1.1-3.2-2-5-3.1C453.8,884.8,458.7,877.3,463.7,869.6z M471.9,852.8
		c0.1-6.6-5.2-12.1-11.9-12.2c-6.6-0.2-12.1,5.2-12.1,11.9c-0.1,6.7,5.2,12.2,11.8,12.3C466.1,864.9,471.8,859.4,471.9,852.8z"/>
	<path class="st2" d="M676,869.1c0,2.6,0,4.8,0,7.5c-26.6,0-53.1,0-79.8,0c0-2.5,0-4.8,0-7.5C622.7,869.1,649.1,869.1,676,869.1z"/>
	<path class="st2" d="M54,876.6c0-2.7,0-5,0-7.6c26.5,0,52.9,0,79.7,0c0,2.6,0,4.9,0,7.6C107.1,876.6,80.9,876.6,54,876.6z"/>
	<path class="st2" d="M230,893.9c-2.6,0-4.1,0-5.8,0c0-14.1,0-28.1,0-42.3c1.7,0,3.2,0,5.1,0c0.2,1.9,0.4,3.6,0.6,5.2
		c3.8-2.1,7.3-4.6,11.3-5.9c9-2.9,18.2,2.1,19.1,11.4c1.1,10.3,0.2,20.8,0.2,31.6c-1.1,0-2.5,0.1-4,0.2c-0.3-0.7-0.6-1.1-0.6-1.5
		c-0.1-7,0-14-0.1-21c0-2.5-0.2-5-0.7-7.4c-1.4-6.8-6.7-10-13.4-8.4c-6.7,1.6-11.4,7.1-11.7,14.4C229.8,877.9,230,885.7,230,893.9z"
		/>
	<path class="st2" d="M310.6,882.9c1.1,0.7,2.3,1.5,3.5,2.2c-4,7.7-14.7,11.8-24.8,9.7c-10.4-2.2-17.7-10.3-18.3-20.3
		c-0.6-10.5,5.7-19.7,15.6-23c10.8-3.5,21.9-0.2,27.7,8.6c-1.3,0.9-2.5,1.8-3.7,2.6c-11.3-9.1-22.1-9.5-29.5-1.4
		c-5.8,6.4-5.7,16.8,0.3,23.2C288.7,892.3,299.2,891.8,310.6,882.9z"/>
	<path class="st2" d="M569.6,836.5c-10.5,20.1-20.6,39.5-30.9,59.2c-1.8-1-3.2-1.8-4.8-2.7c8.8-16.9,17.4-33.5,26.4-50.9
		c-9.4,0-18.1,0-27.1,0c0-2.2,0-3.7,0-5.6C545.1,836.5,556.9,836.5,569.6,836.5z"/>
	<path class="st2" d="M419.4,894c-1.8,0-3.3,0-5.4,0c0-17.1,0-34.2,0-51.6c-3.1-0.2-5.6-0.4-8.2-0.6c2.1-6.3,2.4-6.4,13.6-5.3
		C419.4,855.5,419.4,874.5,419.4,894z"/>
	<path class="st2" d="M265.6,670.5c5.1,0,9.1,4.2,9,9.3c-0.1,5.1-4.3,9.1-9.3,8.9c-5-0.2-8.7-4-8.7-9
		C256.5,674.5,260.5,670.4,265.6,670.5z"/>
	<path class="st2" d="M212.4,893.9c-2,0-3.4,0-5.1,0c0-14.1,0-28,0-42.3c1.7,0,3.2,0,5.1,0C212.4,865.7,212.4,879.6,212.4,893.9z"/>
	<path class="st2" d="M216.3,838.2c-2.9,2.2-4.9,4.6-6.2,4.3c-1.8-0.4-3.1-2.9-4.7-4.5c1.6-1.4,3-3.7,4.7-3.9
		C211.6,834,213.3,836.2,216.3,838.2z"/>
</g>
</svg>
