<svg id="Layer_1" enable-background="new 0 0 730 950" viewBox="0 0 730 950" xmlns="http://www.w3.org/2000/svg"><path d="m0 0h730v950h-730z" fill="#fff"/><path d="m68.4 396h9.6c132.6 0 265.2 0 397.9-.1 5.7 0 10.3 1 15.2 4.2 11.7 7.7 25.2 11.4 38.9 12.9 17.8 2 35.8 3.9 53.7 3.8 24.1-.2 48.1-2.7 71-11.5 3.1-1.2 6.1-2.5 9.2-3.7.3-.1.6.1 1.5.2.1 1.5.3 3.1.3 4.7 0 20-.1 40 .1 60 0 4.7-1.3 6.6-6.2 6.4-11.2-.3-22.3-.1-33.5-.1-183.1 0-366.2 0-549.3 0-9.8 0-8.3.4-8.3-8.2 0-20.8 0-41.7 0-62.5-.1-1.7-.1-3.6-.1-6.1z" fill="#d7a333"/><path d="m664.5 111.3c-3.5.2-6.6.5-9.8.5-190.5 0-381 0-571.4 0-3.8 0-7.7-.1-11.4-.8-1.3-.2-3.3-2.3-3.4-3.6-.2-16.5-.2-33 0-49.5 0-1.2 2.2-3.1 3.5-3.3 3.3-.5 6.6-.2 10-.2h571.4c9.9 0 12.3-2.3 11.7 11.7-.5 12.3-.1 24.7-.1 37 0 2.6-.3 5.3-.5 8.2z" fill="#d7a333"/><path d="m665.5 197c0 16.7.2 33.1-.2 49.4-.1 2.2-2.5 5.1-4.7 6.2-13.9 7.3-29.1 10.7-44.5 12-18.7 1.6-37.6 2.3-56.3 2-17.8-.4-35.5-2.9-52.4-8.9-6.9-2.4-13.1-6.7-19.7-9.9-2-1-4.3-1.8-6.5-1.9-8.3-.2-16.7-.1-25-.1-127 0-254 0-381 0-2.1 0-4.3-.3-6.9-.4 0-7.5 0-14.6 0-21.7 0-9 .1-18-.1-27-.1-3.8.9-5.5 5-5.3 5.5.3 11 .1 16.5.1 129.3 0 258.7 0 388-.1 4.5 0 8.1 1.1 11.9 3.7 12.9 9 28.1 11.8 43.2 14.2 24.8 3.9 49.8 4.4 74.7 2 19.2-1.9 38.3-5 55.7-14 .6-.3 1.1-.2 2.3-.3z" fill="#d7a333"/><path d="m665.6 301.1c0 17.2.2 33.7-.3 50.1-.1 2.1-3.2 4.8-5.6 6-13.1 6.5-27.2 10.3-41.7 11.3-20.5 1.5-41.2 2.5-61.8 1.9-19.9-.6-39.6-4.3-58.2-12-2.4-1-5.1-2.1-6.9-3.9-4.6-4.5-10.1-4.4-15.8-4.4-132.6 0-265.2 0-397.9 0-10.3 0-9 .6-9.1-9.2 0-13.5.1-27-.1-40.5-.1-3.7 1.1-5.1 4.8-5 5 .2 10 0 15 0h387.4c5.2 0 9.7.7 14.3 3.9 12.6 8.7 27.5 11.6 42.3 14 20.1 3.2 40.3 4.4 60.7 3.1 24-1.5 47.8-3.7 69.8-14.8.7-.3 1.6-.2 3.1-.5z" fill="#d7a333"/><path d="m665.6 128.4c0 12.5.2 23.8-.1 35.1-.1 5.4-3.9 9.2-8.1 12-6.8 4.5-13.9 8.1-22.3 9.2-8.6 1.1-16.9 4.1-25.5 5.3-20.4 2.9-40.8 2.4-61.2-.7-13-2-26.3-4.3-37.3-11.7-7.1-4.8-14.1-5.6-22-5.6-138 .1-276 .1-414 .1-6.6 0-6.6 0-6.7-6.6 0-10.5.2-21-.1-31.5-.1-4.5 1.5-5.9 5.8-5.7 5.8.3 11.7.1 17.5.1h557.5z" fill="#d7a333"/><path d="m164.6 613.8c-30 0-60-.1-89.9.1-5 0-6.5-1.3-6.4-6.4.3-27 .2-54 0-80.9 0-4.4.8-6.1 5.7-6.1 60.1.2 120.3.1 180.4.1 6.1 0 6.6.5 6.6 6.5 0 26.8-.1 53.6.1 80.4 0 5-1.5 6.5-6.5 6.4-30.1-.3-60-.1-90-.1z" fill="#d7a333"/><path d="m381.1 520.5h87.9c6.6 0 6.6 0 6.6 6.7 0 26.8-.1 53.6.1 80.4 0 4.9-1.5 6.2-6.3 6.2-59-.1-117.9-.1-176.9 0-4.7 0-6.4-1.3-6.4-6.2.2-27.3.1-54.6 0-81.9 0-3.7.9-5.2 5.1-5.2 29.9.2 59.9.1 89.9 0z" fill="#d7a333"/><path d="m581.3 520.5h77.9c6.3 0 6 .1 6 6.6-.1 26.8 0 53.6.1 80.4 0 5.7-.1 6.2-6 6.2-52.1 0-104.3 0-156.4.1-4.4 0-5.7-1.4-5.7-5.7.2-27.3.2-54.6 0-81.9 0-4.9 1.8-5.8 6.1-5.8 26 .2 52 .1 78 .1z" fill="#d7a333"/><path d="m366.5 485.5c96.8 0 193.6 0 290.4.1 2.5 0 7 .3 7.2 1.3 1 3.9.8 8.1.7 12.3 0 .6-1.7 1.5-2.7 1.7-1.8.3-3.6.2-5.5.2-193.9 0-387.8 0-581.8 0-6.5 0-6.6 0-6.5-6.7.1-9.5-1.6-8.8 8.8-8.8 96.5-.1 193-.1 289.4-.1z" fill="#d7a333"/><path d="m664.6 269.7c.8 9.5.6 9.7-8.1 13.3-17.9 7.4-36.8 10.5-56 11.6-24.9 1.3-50 1.3-74.6-3.8-13.7-2.9-27.2-6.2-38.8-14.9-2.1-1.6-5.7-1.7-8.6-1.7-51.8-.1-103.7-.1-155.5-.1-82 0-164 0-246 0-1.3 0-2.7-.1-4 0-3.8.3-4.6-1.7-4.8-5.2-.1-3.9 1.7-4.5 4.8-4.4 4.2.1 8.3 0 12.5 0 130.8 0 261.7 0 392.5-.1 3.9 0 7.3.6 10.6 3 13.1 9.5 28.6 12.2 44 14.9 25 4.3 50.1 4.2 75.2 1.9 18.3-1.6 37.6-4.5 56.8-14.5z" fill="#d7a333"/><path d="m664.7 374c1.5 5.3.8 9.6-4.8 11.4-11.4 3.6-22.6 8.1-34.3 10.2-27.5 4.9-55.3 5.6-83 1.6-13.3-1.9-26.3-5.2-39.3-8.5-4.5-1.2-9-3.7-12.8-6.6-3.5-2.6-6.9-3.4-11-3.4-135 .1-270 .1-405 .1-6 0-6.8-.6-5.9-6 .2-1.3 2.2-3.2 3.5-3.3 4.3-.4 8.7-.2 13-.2h392c4.9 0 9 .8 13.4 3.8 10.8 7.2 23.3 10.7 36.1 12.4 15.5 2 31 4 46.6 4.4 28.7.7 57.2-1.5 84.3-12.3 2.4-1.2 4.7-2.5 7.2-3.6z" fill="#d7a333"/><g fill="#1d1d1b"><path d="m141.8 791.3c-5.2 0-9.1.2-13-.1-1.3-.1-2.7-1.6-3.7-2.8-12.3-15.8-24.6-31.5-36.7-47.4-2.4-3.2-4.9-4.1-9-2.8v52.9c-4 0-7.4 0-11.2 0 0-38.2 0-76.4 0-115.4 4.8 0 9.5-.1 14.3 0 10.8.3 21.7 0 32.4 1.4 15.7 2 25.2 13.8 25.2 29.2 0 15.9-9.4 27.3-25.1 30-4.5.8-9.1 1.1-14.4 1.8 13.7 17.7 27 34.9 41.2 53.2zm-62.2-64.5c11.7-.6 22.9-.6 33.9-2 8.8-1.1 14.4-8.8 14.5-17.7.2-9.1-5.1-17.5-13.5-18.5-11.4-1.5-23.1-1.4-34.9-2z"/><path d="m670.4 676.3v10.4c-6.8 0-13.4 0-20 0-5.7 0-11.3-.1-17 .1-1.4 0-3.8.9-3.9 1.8-2 9.5-3.7 19.1-5.5 28.9 29.4-3.6 47.2 7.5 49.3 30.3 2.4 25.6-12.7 44.7-36.3 46.4-20.5 1.4-37.7-12.2-38.5-30.8h11.3c1.7 6.6 4.7 12.5 11 16.2 15.9 9.4 36.5-.3 40.2-19 4.4-22.5-11.4-37.8-34.2-32.9-5.5 1.2-10.8 3.1-16.8 4.8 1.7-9.3 3.4-18.6 5.1-27.9 1.6-8.7 3.1-17.3 5-26 .3-1.2 2.2-3 3.3-3 15.3-.2 30.6-.1 46 0 .2.2.4.5 1 .7z"/><path d="m458.7 762.8c3.1 1.7 5.6 3.2 8.1 4.6-3.4 13.5-18.9 25.1-33.5 26-17.9 1.1-31.6-5.5-39.8-21.7-9-17.9-7.9-35.5 3.6-51.9 9.6-13.8 25-19.1 41.4-15.3 15.8 3.7 27.9 17.3 30.6 34.4.5 3.2.7 6.5 1.1 10.2-24 0-47.4 0-70.7 0-2.7 10.3 5.1 25.3 16 30.9 8.2 4.3 16.7 3.9 25.1.7 8.6-3.1 13.7-10 18.1-17.9zm-58.4-23.3h57.5c-.5-13-13.2-24.8-27.1-25.3-15.7-.5-28.6 10.1-30.4 25.3z"/><path d="m240.4 749.4c-24.3 0-47.5 0-70.7 0-2.6 11.3 5.8 26.3 17.4 31.5 14.4 6.5 28.3.7 42.1-17.9 2.6 1.5 5.3 3 7.9 4.5-4.2 13.8-19 24.9-33.3 25.9-17.2 1.1-30.8-4.7-39.3-20.1-9.3-16.8-9.1-33.8.7-50.4 9-15.3 24.3-21.9 41.8-18.7 15.9 2.9 28.9 16.5 32.1 33.7.6 3.5.8 7.1 1.3 11.5zm-12.1-9.7c-2.5-16.4-16-26.7-32.5-25.4-12.8 1.1-25.1 13.4-25.1 25.4z"/><path d="m304.8 791c-3.6 0-6.8 0-10.5 0 0-28.1 0-56.3 0-84.9h10.6v12.8c.4.2.8.5 1.1.7 1.2-1.4 2.4-3 3.7-4.3 10.5-10.6 23-14.6 37.4-10.2 10.9 3.3 18.6 11.3 19.5 22.4 1.7 21 1.7 42.1 2.5 63.4-4.5 0-7.8 0-11.8 0 0-2.1 0-4 0-5.9-.1-15.3.1-30.6-.3-45.9-.3-14-5.3-21.7-14.9-24.4-11.3-3.2-23.8 1.6-31 11.9-4.5 6.4-5.8 13.7-5.9 21.3-.2 13-.1 26-.2 39 0 1.3-.1 2.6-.2 4.1z"/><path d="m489.1 774.2c6.1 5.2 12.4 9.7 20.4 8.9 4.4-.4 9.3-1.7 13-4.1 7.4-4.8 7.2-13.6-.1-18.6-4.2-2.9-9.1-4.8-13.6-7.2-4.4-2.3-9-4.4-13.2-7.1-7.1-4.6-10.8-11.3-9.6-20 1.2-8.6 6.8-14 14.6-16.9 14.5-5.3 27-.4 39.1 8.9-2.9 2.6-5.4 4.8-7.4 6.6-5.3-2.5-9.9-5.7-14.9-6.6-4.6-.8-10.1-.3-14.3 1.7-7.3 3.4-8 10.9-1.9 16.3 3.3 2.9 7.5 4.9 11.4 7 5.5 3 11.5 5.4 16.7 8.8 13.8 9.1 14.1 25.3 1 35.5-13.1 10.1-38.3 7.3-48.3-5.5 2.3-2.5 4.7-5 7.1-7.7z"/><path d="m260.2 791c0-28.3 0-56.3 0-84.8h10.5v84.8c-3.4 0-6.8 0-10.5 0z"/><path d="m329.3 873.1c-.1 7.7 3.6 13.8 9.9 15.9 9.7 3.2 16.8-.7 22.1-9 1.5.8 2.7 1.5 4 2.2-3.5 10.2-14.7 15.4-26.1 12.3-11.1-3-17.9-14.2-15.7-25.9 2.2-11.8 12.6-19.7 24.1-18.3 11.8 1.4 19.9 10.8 19.4 22.9-12.5-.1-25-.1-37.7-.1zm31.1-5.2c-1.7-7.8-8.3-12.8-15.8-12.4-7.8.4-13.4 5.2-14.4 12.4z"/><path d="m514.4 861.6c9.1 6.3 11.8 13.3 8.5 21.8-3.3 8.7-11.3 13.1-21.8 11.9-8.2-.9-14-7-15.2-16.1 3.4-1.4 5.2-.5 6.7 3.1 2.4 5.8 7.6 8.3 13.8 7.5 6-.8 10.6-4.7 11.6-10.1 1.4-7.7-3.5-13.2-12.5-14.7-1.5-.2-2.7-1.9-4.1-2.9 1.3-1 2.5-2.7 3.9-3 5.7-1.5 9.2-4.5 9.5-8.9.3-4-2.7-7.7-7.1-9.1-5-1.6-9.8 0-12.4 4.8-1.8 3.2-3.5 5.1-7.2 3.3.8-7.2 6-12.8 12.8-14 7.9-1.4 15.4 2.1 18.6 8.6 3.1 6.1 1.6 11.3-5.1 17.8z"/><path d="m162.4 883.6c2.3-1.3 3.9-2.1 5.6-3.1 1.4 1.7 2.6 3.3 3.9 4.7 4.4 4.8 10 5.9 15.4 3.3 6.1-3 7.7-9.4 3.1-14.4-2.6-2.9-5.9-5.3-9-7.8-2.6-2.1-5.4-3.8-8-5.9-5.9-4.8-7.9-10.6-5.9-16.1 2.2-6.1 7.9-9.5 15.6-9.2 6.9.2 11.7 3.8 15.7 9.5-1.8 1.2-3.3 2.2-4.7 3.2-2.4-1.9-4.4-4-6.8-5.4-4.3-2.5-10.2-1.3-12.6 2.3-2.3 3.5-1.3 7.9 3.2 11.3 4.6 3.6 9.6 6.6 14.1 10.3 9 7.5 10.6 15.9 4.8 22.9-6.2 7.5-18.7 9-26.6 2.8-2.9-2.4-5.1-5.4-7.8-8.4z"/><path d="m463.7 869.6c-14.8 1.1-23.9-7.9-21.5-20.4 2-10.1 12.2-16.5 22.3-13.9 9.9 2.5 15.3 12.8 12.2 23.2-.6 2-1.4 4.1-2.6 5.9-6.7 10.3-13.4 20.5-20.4 31.2-1.8-1.1-3.2-2-5-3.1 5.1-7.7 10-15.2 15-22.9zm8.2-16.8c.1-6.6-5.2-12.1-11.9-12.2-6.6-.2-12.1 5.2-12.1 11.9-.1 6.7 5.2 12.2 11.8 12.3 6.4.1 12.1-5.4 12.2-12z"/><path d="m676 869.1v7.5c-26.6 0-53.1 0-79.8 0 0-2.5 0-4.8 0-7.5z"/><path d="m54 876.6c0-2.7 0-5 0-7.6h79.7v7.6c-26.6 0-52.8 0-79.7 0z"/><path d="m230 893.9c-2.6 0-4.1 0-5.8 0 0-14.1 0-28.1 0-42.3h5.1c.2 1.9.4 3.6.6 5.2 3.8-2.1 7.3-4.6 11.3-5.9 9-2.9 18.2 2.1 19.1 11.4 1.1 10.3.2 20.8.2 31.6-1.1 0-2.5.1-4 .2-.3-.7-.6-1.1-.6-1.5-.1-7 0-14-.1-21 0-2.5-.2-5-.7-7.4-1.4-6.8-6.7-10-13.4-8.4s-11.4 7.1-11.7 14.4c-.2 7.7 0 15.5 0 23.7z"/><path d="m310.6 882.9c1.1.7 2.3 1.5 3.5 2.2-4 7.7-14.7 11.8-24.8 9.7-10.4-2.2-17.7-10.3-18.3-20.3-.6-10.5 5.7-19.7 15.6-23 10.8-3.5 21.9-.2 27.7 8.6-1.3.9-2.5 1.8-3.7 2.6-11.3-9.1-22.1-9.5-29.5-1.4-5.8 6.4-5.7 16.8.3 23.2 7.3 7.8 17.8 7.3 29.2-1.6z"/><path d="m569.6 836.5c-10.5 20.1-20.6 39.5-30.9 59.2-1.8-1-3.2-1.8-4.8-2.7 8.8-16.9 17.4-33.5 26.4-50.9-9.4 0-18.1 0-27.1 0 0-2.2 0-3.7 0-5.6z"/><path d="m419.4 894c-1.8 0-3.3 0-5.4 0 0-17.1 0-34.2 0-51.6-3.1-.2-5.6-.4-8.2-.6 2.1-6.3 2.4-6.4 13.6-5.3z"/><path d="m265.6 670.5c5.1 0 9.1 4.2 9 9.3s-4.3 9.1-9.3 8.9-8.7-4-8.7-9c-.1-5.2 3.9-9.3 9-9.2z"/><path d="m212.4 893.9c-2 0-3.4 0-5.1 0 0-14.1 0-28 0-42.3h5.1z"/><path d="m216.3 838.2c-2.9 2.2-4.9 4.6-6.2 4.3-1.8-.4-3.1-2.9-4.7-4.5 1.6-1.4 3-3.7 4.7-3.9 1.5-.1 3.2 2.1 6.2 4.1z"/></g></svg>