<svg height="0" overflow="hidden" style="display:none" width="0" xmlns="http://www.w3.org/2000/svg"><defs><symbol id="icon-left-arrow" viewBox="0 0 14 32"><path d="m13.037 32c-.001 0-.003 0-.004 0-.371 0-.701-.17-.919-.436l-11.854-14.817c-.162-.201-.26-.459-.26-.741s.098-.54.262-.743l11.85-14.813c.219-.255.541-.416.901-.416.655 0 1.185.531 1.185 1.185 0 .268-.089.516-.24.715l-11.257 14.065 11.259 14.068c.165.202.265.463.265.747 0 .655-.531 1.185-1.185 1.185-.001 0-.003 0-.004 0z" fill="#d7a333"/></symbol><symbol id="icon-right-arrow" viewBox="0 0 14 32"><path fill="#d7a333"/></symbol><symbol id="icon-phone" viewBox="0 0 32 32"><path d="m16 0c-8.837 0-16 7.163-16 16s7.163 16 16 16 16-7.163 16-16-7.163-16-16-16zm9.824 22.221c-.736 2.509-2.682 4.122-5.594 3.84-.947-.096-5.261-.973-9.222-4.941s-4.774-8.224-4.845-9.171c-.301-2.874.96-5.12 3.328-5.946.136-.047.293-.074.457-.074.587 0 1.092.35 1.319.852l1.284 2.761c.084.179.134.388.134.609 0 .402-.164.767-.428 1.03l-1.958 1.958s.045 1.542 3.2 4.73 4.723 3.2 4.723 3.2l1.92-1.92c.263-.263.626-.425 1.027-.425.239 0 .465.058.664.16l3.192 1.622c.507.236.853.741.853 1.327 0 .138-.019.272-.055.398z"/></symbol><symbol id="icon-bed" viewBox="0 0 45 32"><path d="m5.409 15.119v-15.119h-5.409v32h5.409v-7.229h33.877v7.229h5.409v-16.881h-39.287z" fill="#d7a333"/><path d="m24.995 2.994c-.008 0-.018 0-.028 0-1.97 0-3.902.162-5.784.475l.204 8.987h20.677c.008-5.227-4.905-9.462-15.07-9.462z" fill="#d7a333"/><path d="m12.688 12.299h.008c2.526 0 4.574-2.048 4.574-4.574s-2.048-4.574-4.574-4.574-4.574 2.048-4.574 4.574v0c0 2.523 2.043 4.569 4.565 4.574z" fill="#d7a333"/></symbol><symbol id="icon-coffee" viewBox="0 0 28 32"><path d="m .473 30.089h21.589v1.911h-21.589v-1.911z" fill="#d7a333"/><path d="m27.13 16.389c-.839-1.098-2.149-1.8-3.623-1.8-.053 0-.106.001-.159.003-.295.002-.589.026-.877.07.034-.424.034-.843.034-1.268h-22.505c0 7.152 3.187 13.221 7.62 15.407h7.296c1.763-.934 3.212-2.245 4.281-3.834.571.174 1.201.3 1.861.3h.03c1.51-.028 2.899-.534 4.024-1.373 1.195-.846 2.106-2.061 2.568-3.479.163-.475.25-.967.25-1.48 0-.953-.299-1.836-.809-2.561zm-25.333-1.27h2.869c.178 4.257 1.202 8.234 2.906 11.824-3.23-2.269-5.398-6.696-5.776-11.824zm23.871 4.649c-.329 1.009-.958 1.844-1.782 2.422-.777.59-1.736.948-2.776.974-.007 0-.008 0-.009 0-.267 0-.526-.033-.774-.095.95-1.795 1.632-3.885 1.956-6.092.331-.202.698-.259 1.076-.265.052-.003.108-.005.165-.005.768 0 1.454.356 1.901.911.248.374.393.827.393 1.315 0 .3-.055.587-.156.851z" fill="#d7a333"/><path d="m12.4 6.631c-.127.188-.253.406-.363.633-.1.219-.186.447-.256.683-.069.229-.123.466-.161.707-.037.228-.062.467-.075.709-.005.113-.008.225-.008.338 0 .367.026.727.078 1.079.062.445.173.882.327 1.297l.118-.044c.072-.908.238-1.748.489-2.55.201-.676.574-1.33 1.066-1.876.225-.234.492-.434.788-.587.29-.15.608-.261.942-.322.351-.061.73-.094 1.117-.094s.767.033 1.136.096l.248.042.299.054.347.06.347.048c.29.041.624.064.964.064.171 0 .34-.006.508-.017.545-.032 1.073-.161 1.559-.37.542-.237 1.009-.639 1.328-1.144.149-.247.264-.518.338-.806.062-.255.095-.524.095-.801 0-.008 0-.016 0-.024-.006-.519-.093-1.017-.25-1.482-.152-.449-.339-.863-.56-1.254-.212-.384-.464-.747-.749-1.081l-.112.069c.162.734.271 1.593.305 2.47.002.071.003.123.003.175 0 .343-.038.677-.11.998-.054.275-.187.543-.374.763-.167.174-.381.306-.623.373-.287.082-.605.128-.934.128-.012 0-.024 0-.036 0-.004 0-.01 0-.016 0-.384 0-.763-.026-1.133-.077l-.244-.037-.288-.06-.323-.054-.347-.054c-.319-.049-.687-.077-1.061-.077-.66 0-1.299.087-1.907.251-.489.143-.961.368-1.385.658-.418.298-.784.672-1.076 1.1z" fill="#d7a333"/><path d="m21.158 8.039v.132c.155.023.333.037.515.037s.36-.013.535-.039c.359-.052.7-.146 1.022-.278.679-.259 1.261-.727 1.664-1.325.308-.48.486-1.051.486-1.664 0-.176-.015-.349-.043-.518-.108-.712-.384-1.364-.785-1.918l-.111.067c.13.556.204 1.195.204 1.851v.044c-.001.598-.182 1.156-.492 1.62-.337.46-.766.845-1.261 1.129-.498.3-1.061.585-1.646.829z" fill="#d7a333"/><path d="m10.351 9.788c.054-.671.102-1.324.192-1.953.071-.664.225-1.273.454-1.843.176-.489.543-.922 1.015-1.194.254-.13.537-.222.834-.268.304-.044.64-.07.982-.074l.004-.126c-.288-.151-.624-.261-.978-.31-.124-.018-.249-.028-.375-.028-.27 0-.529.042-.773.121-.37.118-.702.324-.97.594-.248.273-.45.593-.592.943-.211.555-.329 1.173-.329 1.818 0 .112.004.223.011.332.019.713.162 1.402.409 2.04z" fill="#d7a333"/></symbol><symbol id="icon-food" viewBox="0 0 36 32"><path d="m23.842 0h-.035c-.595.004-1.076.483-1.084 1.076v7.096c.004.034.007.074.007.115 0 .526-.426.952-.952.952s-.952-.426-.952-.952c0-.04.003-.08.007-.12v-7.09c-.004-.591-.48-1.069-1.069-1.077h-.001c-.595.004-1.076.483-1.084 1.076v7.096c.007.042.01.091.01.14 0 .526-.426.952-.952.952s-.952-.426-.952-.952c0-.05.004-.098.011-.146l-.001-7.09c-.004-.596-.488-1.077-1.084-1.077-.01 0-.02 0-.029 0h .001c-.002 0-.005 0-.007 0-.596 0-1.08.481-1.084 1.077v9.805c.016 1.913 1.456 3.485 3.311 3.709l.164.002v15.781c.008.834.686 1.508 1.522 1.508v0h .264c.834-.004 1.508-.681 1.508-1.515v0-15.774h.09c1.931-.173 3.433-1.784 3.433-3.745v0-9.77c-.003-.581-.464-1.054-1.04-1.077z" fill="#d7a333"/><path d="m32.66 0c-1.608 0-2.912 1.304-2.912 2.912v12.918c.003 1.42 1.02 2.602 2.365 2.86l.018 11.587c0 .95.77 1.72 1.72 1.72s1.72-.77 1.72-1.72v-27.365c0-.002 0-.005 0-.007 0-1.604-1.3-2.905-2.905-2.905-.002 0-.005 0-.007 0z" fill="#d7a333"/><path d="m5.427 0c-2.995 0-5.427 4.023-5.427 8.075 0 3.266 1.591 6.039 3.787 6.949v15.288c.004.834.681 1.508 1.515 1.508v0h .257v0c .838 0 1.518-.677 1.522-1.515v-15.288c2.189-.938 3.773-3.711 3.773-6.949.007-4.044-2.418-8.068-5.427-8.068z" fill="#d7a333"/></symbol><symbol id="icon-location" viewBox="0 0 24 32"><path d="m12.115 0c-.002 0-.004 0-.006 0-6.685 0-12.105 5.418-12.109 12.102 0 5.472 8.102 15.802 11.046 19.373.245.318.625.521 1.053.521s.808-.203 1.05-.517c2.953-3.574 11.068-13.891 11.068-19.363 0-.002 0-.004 0-.006 0-6.685-5.418-12.105-12.102-12.109zm0 16.691c-2.711 0-4.909-2.198-4.909-4.909s2.198-4.909 4.909-4.909 4.909 2.198 4.909 4.909-2.198 4.909-4.909 4.909c-.002 0-.005 0-.007 0z"/></symbol><symbol id="icon-time" viewBox="0 0 22 32"><path d="m3.895 28.58c-.019-.001-.041-.001-.063-.001-.253 0-.491.063-.699.174l.127-.681h1.879v-1.042h-2.766l-.425 2.405.914.398c.157-.193.393-.316.658-.32.015-.001.031-.002.048-.002.381 0 .69.309.69.69s-.309.69-.69.69c-.036 0-.071-.003-.106-.008-.394-.028-.741-.223-.972-.513l-.789.784c.411.512 1.032.84 1.731.85 1.017 0 2.091-.594 2.091-1.765.001-.022.002-.048.002-.074 0-.876-.71-1.587-1.587-1.587-.015 0-.03 0-.045.001z" fill="#d7a333"/><path d="m13.259 30.007c0-.85-.174-1.678-1.308-1.678-.415.01-.782.203-1.027.501-.198-.295-.531-.489-.909-.489-.041 0-.082.002-.122.007-.356.039-.666.229-.866.503l-.158-.408h-1.321v.914h.293v1.641h-.293v.914h2.053v-.914h-.421v-1.244c0-.288.091-.421.315-.421s.293.229.293.796v1.783h1.829v-.914h-.416v-1.152c0-.302.069-.512.37-.512s.265.53.265.869v1.71h1.774v-.942h-.352z" fill="#d7a333"/><path d="m14.091 27.405c.027.394.354.704.753.704h.002c.021.002.044.003.069.003.386 0 .7-.313.7-.7 0-.003 0-.006 0-.008-.02-.398-.348-.713-.749-.713-.007 0-.013 0-.02 0s-.014 0-.022 0c-.398 0-.721.317-.731.713z" fill="#d7a333"/><path d="m15.513 28.425h-1.619v.905h.293v1.673h-.297v.914h1.957v-.914h-.334v-2.579z" fill="#d7a333"/><path d="m20.117 29.837c0-.732-.183-1.536-1.262-1.536-.002 0-.004 0-.007 0-.426 0-.8.22-1.015.553l-.163-.43h-1.472v.914h.293v1.669h-.293v.914h2.153v-.914h-.521v-.997c0-.302.082-.649.457-.649s.393.412.389.649v1.907h1.76v-.914h-.32z" fill="#d7a333"/><path d="m11.074 25.444h.007c6.118 0 11.078-4.96 11.078-11.078 0-2.668-.943-5.116-2.515-7.028l.838-.804.11.11c.117.117.279.189.457.189.357 0 .647-.29.647-.647 0-.179-.072-.34-.189-.457l-1.591-1.545c-.117-.117-.279-.189-.457-.189-.357 0-.647.29-.647.647 0 .179.072.34.189.457l.261.261-.796.796c-1.611-1.454-3.668-2.442-5.943-2.737l-.055-1.309h.457c.582 0 1.054-.472 1.054-1.054s-.472-1.054-1.054-1.054h-3.685c-.582 0-1.054.472-1.054 1.054s.472 1.054 1.054 1.054h.457v1.276c-5.508.695-9.726 5.35-9.726 10.991 0 6.116 4.958 11.074 11.074 11.074h.026zm-8.5-11.65h-.745c.135-2.163.996-4.103 2.339-5.6l.509.525c.059.057.14.092.229.092s.169-.035.229-.092l.311-.311c.057-.059.092-.14.092-.229s-.035-.169-.092-.229l-.507-.526c1.488-1.325 3.422-2.177 5.552-2.308l.026.726c0 .182.147.329.329.329h.457c.182 0 .329-.147.329-.329v-.727c2.161.13 4.101.985 5.601 2.322l-.526.509c-.057.059-.092.14-.092.229s.035.169.092.229l.311.311c.059.057.14.092.229.092s.169-.035.229-.092l.526-.485c1.335 1.491 2.195 3.432 2.326 5.57l-.744.026c-.182 0-.329.147-.329.329v.457c0 .182.147.329.329.329h.745c-.134 2.154-.988 4.087-2.322 5.583l-.527-.544c-.059-.057-.14-.092-.229-.092s-.169.035-.229.092l-.311.311c-.057.059-.092.14-.092.229s.035.169.092.229l.535.539c-1.495 1.338-3.444 2.199-5.589 2.326l-.025-.753c0-.182-.147-.329-.329-.329h-.457c-.182 0-.329.147-.329.329v.764c-2.171-.13-4.12-.992-5.623-2.339l.548-.527c.057-.059.092-.14.092-.229s-.035-.169-.092-.229l-.311-.311c-.059-.057-.14-.092-.229-.092s-.169.035-.229.092l-.558.517c-1.324-1.5-2.17-3.448-2.285-5.591l.744-.023c.182 0 .329-.147.329-.329v-.457c-.01-.174-.153-.311-.329-.311 0 0 0 0-.001 0z" fill="#d7a333"/><path d="m16.194 9.208c-1.294-1.299-3.085-2.103-5.063-2.103-.003 0-.005 0-.008 0v4.819h.016c.649 0 1.237.264 1.662.69z" fill="#d7a333"/><path d="m12.692 14.279c0 .866-.702 1.568-1.568 1.568s-1.568-.702-1.568-1.568.702-1.568 1.568-1.568 1.568.702 1.568 1.568z" fill="#d7a333"/></symbol><symbol id="icon-hotel" viewBox="0 0 29 32"><path d="m3.669 4.696 1.015-.537 1.021.537-.198-1.132.817-.805-1.132-.163-.507-1.027-.513 1.027-1.132.163.822.805-.192 1.132z" fill="#d7a333"/><path d="m8.096 4.696 1.196-.624 1.184.624-.233-1.324.962-.939-1.324-.187-.589-1.202-.601 1.202-1.318.187.957.939-.233 1.324z" fill="#d7a333"/><path d="m13.188 4.696 1.522-.805 1.528.805-.286-1.697 1.231-1.207-1.703-.245-.77-1.546-.758 1.546-1.703.245 1.231 1.207z" fill="#d7a333"/><path d="m18.951 4.696 1.19-.624 1.184.624-.227-1.324.962-.939-1.33-.187-.589-1.202-.595 1.202-1.324.187.957.939-.227 1.324z" fill="#d7a333"/><path d="m23.729 4.696 1.015-.537 1.021.537-.198-1.132.822-.805-1.137-.163-.507-1.027-.507 1.027-1.132.163.822.805-.198 1.132z" fill="#d7a333"/><path d="m0 30.793h29.428v1.202h-29.428z" fill="#d7a333"/><path d="m11.019 25.012h3.255v4.427h.892v-4.427h3.255v4.427h8.277v-22.72h-23.974v22.72h8.295zm10.767-15.895h2.753v2.747h-2.753zm0 4.707h2.753v2.747h-2.753zm0 4.708h2.753v2.759h-2.753zm-4.707-9.415h2.753v2.747h-2.753zm0 4.707h2.753v2.747h-2.753zm0 4.708h2.753v2.759h-2.753zm-7.484-9.415h2.753v2.747h-2.753zm0 4.707h2.753v2.747h-2.753zm-1.954 7.461h-2.759v-2.753h2.759zm0-4.713h-2.759v-2.747h2.759zm0-4.708h-2.759v-2.747h2.759zm1.954 6.662h2.753v2.759h-2.753z" fill="#d7a333"/></symbol><symbol id="icon-menu" viewBox="0 0 32 32"><path d="m0 0h32v6.4h-32z"/><path d="m0 12.8h32v6.4h-32z"/><path d="m0 25.6h32v6.4h-32z"/></symbol></defs></svg>