<svg style="position: absolute; width: 0; height: 0; overflow: hidden;" version="1.1" xmlns="http://www.w3.org/2000/svg">
<defs>
<symbol id="icon-left-arrow" viewBox="0 0 14 32">
<title>left-arrow</title>
<path fill="#d7a333" style="fill: var(--color1, #d7a333)" d="M13.037 32c-0.001 0-0.003 0-0.004 0-0.371 0-0.701-0.17-0.919-0.436l-11.854-14.817c-0.162-0.201-0.26-0.459-0.26-0.741s0.098-0.54 0.262-0.743l11.85-14.813c0.219-0.255 0.541-0.416 0.901-0.416 0.655 0 1.185 0.531 1.185 1.185 0 0.268-0.089 0.516-0.24 0.715l-11.257 14.065 11.259 14.068c0.165 0.202 0.265 0.463 0.265 0.747 0 0.655-0.531 1.185-1.185 1.185-0.001 0-0.003 0-0.004 0z"></path>
</symbol>
<symbol id="icon-right-arrow" viewBox="0 0 14 32">
<title>right-arrow</title>
<path fill="#d7a333" style="fill: var(--color1, #d7a333)" d="M1.185 32c-0.652-0.003-1.18-0.533-1.18-1.185 0-0.279 0.096-0.535 0.257-0.737l11.257-14.078-11.259-14.080c-0.2-0.212-0.323-0.498-0.323-0.814 0-0.655 0.531-1.185 1.185-1.185 0.41 0 0.772 0.208 0.984 0.525l11.855 14.819c0.162 0.201 0.26 0.459 0.26 0.741s-0.098 0.54-0.262 0.743l-11.85 14.813c-0.219 0.268-0.55 0.439-0.92 0.439-0.001 0-0.003 0-0.004 0z"></path>
</symbol>
<symbol id="icon-phone" viewBox="0 0 32 32">
<title>phone</title>
<path d="M16 0c-8.837 0-16 7.163-16 16s7.163 16 16 16c8.837 0 16-7.163 16-16s-7.163-16-16-16zM25.824 22.221c-0.736 2.509-2.682 4.122-5.594 3.84-0.947-0.096-5.261-0.973-9.222-4.941s-4.774-8.224-4.845-9.171c-0.301-2.874 0.96-5.12 3.328-5.946 0.136-0.047 0.293-0.074 0.457-0.074 0.587 0 1.092 0.35 1.319 0.852l1.284 2.761c0.084 0.179 0.134 0.388 0.134 0.609 0 0.402-0.164 0.767-0.428 1.030l-1.958 1.958s0.045 1.542 3.2 4.73 4.723 3.2 4.723 3.2l1.92-1.92c0.263-0.263 0.626-0.425 1.027-0.425 0.239 0 0.465 0.058 0.664 0.16l3.192 1.622c0.507 0.236 0.853 0.741 0.853 1.327 0 0.138-0.019 0.272-0.055 0.398z"></path>
</symbol>
<symbol id="icon-bed" viewBox="0 0 45 32">
<title>bed</title>
<path fill="#d7a333" style="fill: var(--color1, #d7a333)" d="M5.409 15.119v-15.119h-5.409v32h5.409v-7.229h33.877v7.229h5.409v-16.881h-39.287z"></path>
<path fill="#d7a333" style="fill: var(--color1, #d7a333)" d="M24.995 2.994c-0.008 0-0.018 0-0.028 0-1.97 0-3.902 0.162-5.784 0.475l0.204 8.987h20.677c0.008-5.227-4.905-9.462-15.070-9.462z"></path>
<path fill="#d7a333" style="fill: var(--color1, #d7a333)" d="M12.688 12.299c0.002 0 0.005 0 0.008 0 2.526 0 4.574-2.048 4.574-4.574s-2.048-4.574-4.574-4.574c-2.526 0-4.574 2.048-4.574 4.574 0 0 0 0 0 0 0 2.523 2.043 4.569 4.565 4.574z"></path>
</symbol>
<symbol id="icon-coffee" viewBox="0 0 28 32">
<title>coffee</title>
<path fill="#d7a333" style="fill: var(--color1, #d7a333)" d="M0.473 30.089h21.589v1.911h-21.589v-1.911z"></path>
<path fill="#d7a333" style="fill: var(--color1, #d7a333)" d="M27.13 16.389c-0.839-1.098-2.149-1.8-3.623-1.8-0.053 0-0.106 0.001-0.159 0.003-0.295 0.002-0.589 0.026-0.877 0.070 0.034-0.424 0.034-0.843 0.034-1.268h-22.505c0 7.152 3.187 13.221 7.62 15.407h7.296c1.763-0.934 3.212-2.245 4.281-3.834 0.571 0.174 1.201 0.3 1.861 0.3 0.010 0 0.020-0 0.030-0 1.51-0.028 2.899-0.534 4.024-1.373 1.195-0.846 2.106-2.061 2.568-3.479 0.163-0.475 0.25-0.967 0.25-1.48 0-0.953-0.299-1.836-0.809-2.561zM1.797 15.119h2.869c0.178 4.257 1.202 8.234 2.906 11.824-3.23-2.269-5.398-6.696-5.776-11.824zM25.668 19.768c-0.329 1.009-0.958 1.844-1.782 2.422-0.777 0.59-1.736 0.948-2.776 0.974-0.007 0-0.008 0-0.009 0-0.267 0-0.526-0.033-0.774-0.095 0.95-1.795 1.632-3.885 1.956-6.092 0.331-0.202 0.698-0.259 1.076-0.265 0.052-0.003 0.108-0.005 0.165-0.005 0.768 0 1.454 0.356 1.901 0.911 0.248 0.374 0.393 0.827 0.393 1.315 0 0.3-0.055 0.587-0.156 0.851z"></path>
<path fill="#d7a333" style="fill: var(--color1, #d7a333)" d="M12.4 6.631c-0.127 0.188-0.253 0.406-0.363 0.633-0.1 0.219-0.186 0.447-0.256 0.683-0.069 0.229-0.123 0.466-0.161 0.707-0.037 0.228-0.062 0.467-0.075 0.709-0.005 0.113-0.008 0.225-0.008 0.338 0 0.367 0.026 0.727 0.078 1.079 0.062 0.445 0.173 0.882 0.327 1.297l0.118-0.044c0.072-0.908 0.238-1.748 0.489-2.55 0.201-0.676 0.574-1.33 1.066-1.876 0.225-0.234 0.492-0.434 0.788-0.587 0.29-0.15 0.608-0.261 0.942-0.322 0.351-0.061 0.73-0.094 1.117-0.094s0.767 0.033 1.136 0.096l0.248 0.042 0.299 0.054 0.347 0.060 0.347 0.048c0.29 0.041 0.624 0.064 0.964 0.064 0.171 0 0.34-0.006 0.508-0.017 0.545-0.032 1.073-0.161 1.559-0.37 0.542-0.237 1.009-0.639 1.328-1.144 0.149-0.247 0.264-0.518 0.338-0.806 0.062-0.255 0.095-0.524 0.095-0.801 0-0.008-0-0.016-0-0.024-0.006-0.519-0.093-1.017-0.25-1.482-0.152-0.449-0.339-0.863-0.56-1.254-0.212-0.384-0.464-0.747-0.749-1.081l-0.112 0.069c0.162 0.734 0.271 1.593 0.305 2.47 0.002 0.071 0.003 0.123 0.003 0.175 0 0.343-0.038 0.677-0.11 0.998-0.054 0.275-0.187 0.543-0.374 0.763-0.167 0.174-0.381 0.306-0.623 0.373-0.287 0.082-0.605 0.128-0.934 0.128-0.012 0-0.024-0-0.036-0-0.004 0-0.010 0-0.016 0-0.384 0-0.763-0.026-1.133-0.077l-0.244-0.037-0.288-0.060-0.323-0.054-0.347-0.054c-0.319-0.049-0.687-0.077-1.061-0.077-0.66 0-1.299 0.087-1.907 0.251-0.489 0.143-0.961 0.368-1.385 0.658-0.418 0.298-0.784 0.672-1.076 1.1z"></path>
<path fill="#d7a333" style="fill: var(--color1, #d7a333)" d="M21.158 8.039v0.132c0.155 0.023 0.333 0.037 0.515 0.037s0.36-0.013 0.535-0.039c0.359-0.052 0.7-0.146 1.022-0.278 0.679-0.259 1.261-0.727 1.664-1.325 0.308-0.48 0.486-1.051 0.486-1.664 0-0.176-0.015-0.349-0.043-0.518-0.108-0.712-0.384-1.364-0.785-1.918l-0.111 0.067c0.13 0.556 0.204 1.195 0.204 1.851 0 0.015-0 0.029-0 0.044-0.001 0.598-0.182 1.156-0.492 1.62-0.337 0.46-0.766 0.845-1.261 1.129-0.498 0.3-1.061 0.585-1.646 0.829z"></path>
<path fill="#d7a333" style="fill: var(--color1, #d7a333)" d="M10.351 9.788c0.054-0.671 0.102-1.324 0.192-1.953 0.071-0.664 0.225-1.273 0.454-1.843 0.176-0.489 0.543-0.922 1.015-1.194 0.254-0.13 0.537-0.222 0.834-0.268 0.304-0.044 0.64-0.070 0.982-0.074l0.004-0.126c-0.288-0.151-0.624-0.261-0.978-0.31-0.124-0.018-0.249-0.028-0.375-0.028-0.27 0-0.529 0.042-0.773 0.121-0.37 0.118-0.702 0.324-0.97 0.594-0.248 0.273-0.45 0.593-0.592 0.943-0.211 0.555-0.329 1.173-0.329 1.818 0 0.112 0.004 0.223 0.011 0.332 0.019 0.713 0.162 1.402 0.409 2.040z"></path>
</symbol>
<symbol id="icon-food" viewBox="0 0 36 32">
<title>food</title>
<path fill="#d7a333" style="fill: var(--color1, #d7a333)" d="M23.842 0h-0.035c-0.595 0.004-1.076 0.483-1.084 1.076v7.096c0.004 0.034 0.007 0.074 0.007 0.115 0 0.526-0.426 0.952-0.952 0.952s-0.952-0.426-0.952-0.952c0-0.040 0.003-0.080 0.007-0.12l-0-7.090c-0.004-0.591-0.48-1.069-1.069-1.077h-0.001c-0.595 0.004-1.076 0.483-1.084 1.076v7.096c0.007 0.042 0.010 0.091 0.010 0.14 0 0.526-0.426 0.952-0.952 0.952s-0.952-0.426-0.952-0.952c0-0.050 0.004-0.098 0.011-0.146l-0.001-7.090c-0.004-0.596-0.488-1.077-1.084-1.077-0.010 0-0.020 0-0.029 0l0.001-0c-0.002 0-0.005-0-0.007-0-0.596 0-1.080 0.481-1.084 1.077v9.805c0.016 1.913 1.456 3.485 3.311 3.709l0.164 0.002v15.781c0.008 0.834 0.686 1.508 1.522 1.508 0 0 0 0 0 0h0.264c0.834-0.004 1.508-0.681 1.508-1.515 0 0 0 0 0-0v-15.774h0.090c1.931-0.173 3.433-1.784 3.433-3.745 0-0 0-0 0-0v-9.77c-0.003-0.581-0.464-1.054-1.040-1.077z"></path>
<path fill="#d7a333" style="fill: var(--color1, #d7a333)" d="M32.66 0c-1.608 0-2.912 1.304-2.912 2.912v12.918c0.003 1.42 1.020 2.602 2.365 2.86l0.018 11.587c0 0.95 0.77 1.72 1.72 1.72s1.72-0.77 1.72-1.72v-27.365c0-0.002 0-0.005 0-0.007 0-1.604-1.3-2.905-2.905-2.905-0.002 0-0.005 0-0.007 0z"></path>
<path fill="#d7a333" style="fill: var(--color1, #d7a333)" d="M5.427 0c-2.995 0-5.427 4.023-5.427 8.075 0 3.266 1.591 6.039 3.787 6.949v15.288c0.004 0.834 0.681 1.508 1.515 1.508 0 0 0 0 0 0h0.257c0 0 0 0 0 0 0.838 0 1.518-0.677 1.522-1.515v-15.288c2.189-0.938 3.773-3.711 3.773-6.949 0.007-4.044-2.418-8.068-5.427-8.068z"></path>
</symbol>
<symbol id="icon-location" viewBox="0 0 24 32">
<title>location</title>
<path d="M12.115 0c-0.002 0-0.004 0-0.006 0-6.685 0-12.105 5.418-12.109 12.102 0 5.472 8.102 15.802 11.046 19.373 0.245 0.318 0.625 0.521 1.053 0.521s0.808-0.203 1.050-0.517c2.953-3.574 11.068-13.891 11.068-19.363 0-0.002 0-0.004 0-0.006 0-6.685-5.418-12.105-12.102-12.109zM12.115 16.691c-2.711 0-4.909-2.198-4.909-4.909s2.198-4.909 4.909-4.909c2.711 0 4.909 2.198 4.909 4.909s-2.198 4.909-4.909 4.909c-0.002 0-0.005 0-0.007 0z"></path>
</symbol>
<symbol id="icon-time" viewBox="0 0 22 32">
<title>time</title>
<path fill="#d7a333" style="fill: var(--color1, #d7a333)" d="M3.895 28.58c-0.019-0.001-0.041-0.001-0.063-0.001-0.253 0-0.491 0.063-0.699 0.174l0.127-0.681h1.879v-1.042h-2.766l-0.425 2.405 0.914 0.398c0.157-0.193 0.393-0.316 0.658-0.32 0.015-0.001 0.031-0.002 0.048-0.002 0.381 0 0.69 0.309 0.69 0.69s-0.309 0.69-0.69 0.69c-0.036 0-0.071-0.003-0.106-0.008-0.394-0.028-0.741-0.223-0.972-0.513l-0.789 0.784c0.411 0.512 1.032 0.84 1.731 0.85 1.017 0 2.091-0.594 2.091-1.765 0.001-0.022 0.002-0.048 0.002-0.074 0-0.876-0.71-1.587-1.587-1.587-0.015 0-0.030 0-0.045 0.001z"></path>
<path fill="#d7a333" style="fill: var(--color1, #d7a333)" d="M13.259 30.007c0-0.85-0.174-1.678-1.308-1.678-0.415 0.010-0.782 0.203-1.027 0.501-0.198-0.295-0.531-0.489-0.909-0.489-0.041 0-0.082 0.002-0.122 0.007-0.356 0.039-0.666 0.229-0.866 0.503l-0.158-0.408h-1.321v0.914h0.293v1.641h-0.293v0.914h2.053v-0.914h-0.421v-1.244c0-0.288 0.091-0.421 0.315-0.421s0.293 0.229 0.293 0.796v1.783h1.829v-0.914h-0.416v-1.152c0-0.302 0.069-0.512 0.37-0.512s0.265 0.53 0.265 0.869v1.71h1.774v-0.942h-0.352z"></path>
<path fill="#d7a333" style="fill: var(--color1, #d7a333)" d="M14.091 27.405c0.027 0.394 0.354 0.704 0.753 0.704 0.001 0 0.001 0 0.002 0 0.021 0.002 0.044 0.003 0.069 0.003 0.386 0 0.7-0.313 0.7-0.7 0-0.003-0-0.006-0-0.008-0.020-0.398-0.348-0.713-0.749-0.713-0.007 0-0.013 0-0.020 0s-0.014-0-0.022-0c-0.398 0-0.721 0.317-0.731 0.713z"></path>
<path fill="#d7a333" style="fill: var(--color1, #d7a333)" d="M15.513 28.425h-1.619v0.905h0.293v1.673h-0.297v0.914h1.957v-0.914h-0.334v-2.579z"></path>
<path fill="#d7a333" style="fill: var(--color1, #d7a333)" d="M20.117 29.837c0-0.732-0.183-1.536-1.262-1.536-0.002 0-0.004-0-0.007-0-0.426 0-0.8 0.22-1.015 0.553l-0.163-0.43h-1.472v0.914h0.293v1.669h-0.293v0.914h2.153v-0.914h-0.521v-0.997c0-0.302 0.082-0.649 0.457-0.649s0.393 0.412 0.389 0.649v1.907h1.76v-0.914h-0.32z"></path>
<path fill="#d7a333" style="fill: var(--color1, #d7a333)" d="M11.074 25.444c0.002 0 0.005 0 0.007 0 6.118 0 11.078-4.96 11.078-11.078 0-2.668-0.943-5.116-2.515-7.028l0.838-0.804 0.11 0.11c0.117 0.117 0.279 0.189 0.457 0.189 0.357 0 0.647-0.29 0.647-0.647 0-0.179-0.072-0.34-0.189-0.457l-1.591-1.545c-0.117-0.117-0.279-0.189-0.457-0.189-0.357 0-0.647 0.29-0.647 0.647 0 0.179 0.072 0.34 0.189 0.457l0.261 0.261-0.796 0.796c-1.611-1.454-3.668-2.442-5.943-2.737l-0.055-1.309h0.457c0.582 0 1.054-0.472 1.054-1.054s-0.472-1.054-1.054-1.054h-3.685c-0.582 0-1.054 0.472-1.054 1.054s0.472 1.054 1.054 1.054h0.457v1.276c-5.508 0.695-9.726 5.35-9.726 10.991 0 6.116 4.958 11.074 11.074 11.074 0.009 0 0.017 0 0.026-0zM2.574 13.794h-0.745c0.135-2.163 0.996-4.103 2.339-5.6l0.509 0.525c0.059 0.057 0.14 0.092 0.229 0.092s0.169-0.035 0.229-0.092l0.311-0.311c0.057-0.059 0.092-0.14 0.092-0.229s-0.035-0.169-0.092-0.229l-0.507-0.526c1.488-1.325 3.422-2.177 5.552-2.308l0.026 0.726c0 0.182 0.147 0.329 0.329 0.329h0.457c0.182 0 0.329-0.147 0.329-0.329v-0.727c2.161 0.13 4.101 0.985 5.601 2.322l-0.526 0.509c-0.057 0.059-0.092 0.14-0.092 0.229s0.035 0.169 0.092 0.229l0.311 0.311c0.059 0.057 0.14 0.092 0.229 0.092s0.169-0.035 0.229-0.092l0.526-0.485c1.335 1.491 2.195 3.432 2.326 5.57l-0.744 0.026c-0.182 0-0.329 0.147-0.329 0.329v0.457c0 0.182 0.147 0.329 0.329 0.329h0.745c-0.134 2.154-0.988 4.087-2.322 5.583l-0.527-0.544c-0.059-0.057-0.14-0.092-0.229-0.092s-0.169 0.035-0.229 0.092l-0.311 0.311c-0.057 0.059-0.092 0.14-0.092 0.229s0.035 0.169 0.092 0.229l0.535 0.539c-1.495 1.338-3.444 2.199-5.589 2.326l-0.025-0.753c0-0.182-0.147-0.329-0.329-0.329h-0.457c-0.182 0-0.329 0.147-0.329 0.329v0.764c-2.171-0.13-4.12-0.992-5.623-2.339l0.548-0.527c0.057-0.059 0.092-0.14 0.092-0.229s-0.035-0.169-0.092-0.229l-0.311-0.311c-0.059-0.057-0.14-0.092-0.229-0.092s-0.169 0.035-0.229 0.092l-0.558 0.517c-1.324-1.5-2.17-3.448-2.285-5.591l0.744-0.023c0.182 0 0.329-0.147 0.329-0.329v-0.457c-0.010-0.174-0.153-0.311-0.329-0.311-0 0-0 0-0.001 0z"></path>
<path fill="#d7a333" style="fill: var(--color1, #d7a333)" d="M16.194 9.208c-1.294-1.299-3.085-2.103-5.063-2.103-0.003 0-0.005 0-0.008 0l0 4.819c0.005-0 0.010-0 0.016-0 0.649 0 1.237 0.264 1.662 0.69z"></path>
<path fill="#d7a333" style="fill: var(--color1, #d7a333)" d="M12.692 14.279c0 0.866-0.702 1.568-1.568 1.568s-1.568-0.702-1.568-1.568c0-0.866 0.702-1.568 1.568-1.568s1.568 0.702 1.568 1.568z"></path>
</symbol>
<symbol id="icon-hotel" viewBox="0 0 29 32">
<title>hotel</title>
<path fill="#d7a333" style="fill: var(--color1, #d7a333)" d="M3.669 4.696l1.015-0.537 1.021 0.537-0.198-1.132 0.817-0.805-1.132-0.163-0.507-1.027-0.513 1.027-1.132 0.163 0.822 0.805-0.192 1.132z"></path>
<path fill="#d7a333" style="fill: var(--color1, #d7a333)" d="M8.096 4.696l1.196-0.624 1.184 0.624-0.233-1.324 0.962-0.939-1.324-0.187-0.589-1.202-0.601 1.202-1.318 0.187 0.957 0.939-0.233 1.324z"></path>
<path fill="#d7a333" style="fill: var(--color1, #d7a333)" d="M13.188 4.696l1.522-0.805 1.528 0.805-0.286-1.697 1.231-1.207-1.703-0.245-0.77-1.546-0.758 1.546-1.703 0.245 1.231 1.207-0.292 1.697z"></path>
<path fill="#d7a333" style="fill: var(--color1, #d7a333)" d="M18.951 4.696l1.19-0.624 1.184 0.624-0.227-1.324 0.962-0.939-1.33-0.187-0.589-1.202-0.595 1.202-1.324 0.187 0.957 0.939-0.227 1.324z"></path>
<path fill="#d7a333" style="fill: var(--color1, #d7a333)" d="M23.729 4.696l1.015-0.537 1.021 0.537-0.198-1.132 0.822-0.805-1.137-0.163-0.507-1.027-0.507 1.027-1.132 0.163 0.822 0.805-0.198 1.132z"></path>
<path fill="#d7a333" style="fill: var(--color1, #d7a333)" d="M0 30.793h29.428v1.202h-29.428v-1.202z"></path>
<path fill="#d7a333" style="fill: var(--color1, #d7a333)" d="M11.019 25.012h3.255v4.427h0.892v-4.427h3.255v4.427h8.277v-22.72h-23.974v22.72h8.295zM21.786 9.117h2.753v2.747h-2.753zM21.786 13.824h2.753v2.747h-2.753zM21.786 18.532h2.753v2.759h-2.753zM17.079 9.117h2.753v2.747h-2.753zM17.079 13.824h2.753v2.747h-2.753zM17.079 18.532h2.753v2.759h-2.753zM9.595 9.117h2.753v2.747h-2.753zM9.595 13.824h2.753v2.747h-2.753zM7.641 21.285h-2.759v-2.753h2.759zM7.641 16.572h-2.759v-2.747h2.759zM7.641 11.864h-2.759v-2.747h2.759zM9.595 18.526h2.753v2.759h-2.753z"></path>
</symbol>
</defs>
</svg>
